<?xml version="1.0" standalone="no"?>
<!DOCTYPE svg PUBLIC "-//W3C//DTD SVG 20010904//EN"
 "http://www.w3.org/TR/2001/REC-SVG-20010904/DTD/svg10.dtd">
<svg version="1.0" xmlns="http://www.w3.org/2000/svg"
 width="200.000000pt" height="200.000000pt" viewBox="0 0 200.000000 200.000000"
 preserveAspectRatio="xMidYMid meet">

<g transform="translate(0.000000,200.000000) scale(0.100000,-0.100000)"
fill="#000000" stroke="none">
<path d="M383 1922 c-7 -4 -28 -40 -48 -80 -51 -101 -134 -181 -241 -233 -66
-32 -85 -46 -91 -66 -9 -38 6 -54 92 -96 101 -49 197 -144 243 -239 54 -114
97 -114 152 -2 44 90 151 199 235 237 87 40 89 42 99 70 13 35 -2 50 -93 95
-99 48 -184 131 -236 232 -21 41 -43 78 -49 82 -14 10 -48 10 -63 0z m126
-295 c31 -32 71 -67 88 -78 l33 -21 -58 -42 c-56 -41 -96 -82 -137 -139 l-21
-29 -47 60 c-26 33 -74 81 -107 106 l-60 45 42 29 c46 32 123 110 152 155 l18
27 21 -28 c11 -15 45 -53 76 -85z"/>
<path d="M1633 1528 c-5 -7 -20 -34 -32 -61 -32 -66 -104 -135 -179 -170 -46
-22 -64 -35 -69 -55 -9 -35 6 -53 68 -83 79 -39 142 -99 180 -174 35 -68 65
-89 98 -68 9 6 31 37 49 69 45 80 94 128 171 167 72 37 87 53 78 88 -5 18 -23
33 -68 55 -79 37 -146 102 -185 179 -27 55 -33 60 -65 63 -21 2 -40 -2 -46
-10z m132 -335 c-23 -18 -51 -46 -64 -63 l-23 -31 -60 60 c-33 34 -64 61 -69
61 -5 0 21 30 58 68 l68 67 65 -65 65 -65 -40 -32z"/>
<path d="M937 1229 c-9 -6 -35 -47 -57 -92 -88 -181 -211 -303 -396 -393 -158
-77 -162 -108 -20 -173 111 -51 188 -105 261 -182 79 -83 101 -114 155 -224
41 -81 48 -90 76 -93 37 -4 44 4 93 105 88 181 235 320 421 398 58 25 77 38
85 59 6 18 6 33 -1 43 -12 19 -15 21 -106 61 -181 81 -328 230 -414 418 -18
41 -38 74 -43 74 -5 0 -15 2 -23 5 -7 2 -21 0 -31 -6z m171 -392 c55 -57 145
-128 203 -161 l41 -24 -64 -38 c-85 -52 -218 -181 -278 -270 l-48 -73 -40 62
c-22 34 -64 89 -94 121 -54 60 -191 169 -228 181 -11 3 -20 10 -20 14 0 4 33
28 73 53 88 57 203 170 264 261 l45 68 50 -73 c27 -40 71 -95 96 -121z"/>
</g>
</svg>
