<?xml version="1.0" standalone="no"?>
<!DOCTYPE svg PUBLIC "-//W3C//DTD SVG 20010904//EN"
 "http://www.w3.org/TR/2001/REC-SVG-20010904/DTD/svg10.dtd">
<svg version="1.0" xmlns="http://www.w3.org/2000/svg"
 width="200.000000pt" height="200.000000pt" viewBox="0 0 200.000000 200.000000"
 preserveAspectRatio="xMidYMid meet">

<g transform="translate(0.000000,200.000000) scale(0.100000,-0.100000)"
fill="#000000" stroke="none">
<path d="M933 1863 l-52 -35 -65 12 c-36 7 -69 10 -75 9 -5 -2 -27 -29 -48
-59 -37 -53 -41 -55 -108 -70 l-70 -15 -15 -70 c-15 -67 -17 -71 -70 -108 -30
-21 -57 -43 -59 -48 -1 -6 2 -39 9 -75 l12 -65 -36 -54 c-20 -30 -36 -59 -36
-65 0 -6 16 -35 36 -65 l36 -54 -13 -72 c-12 -68 -12 -73 7 -85 62 -42 72 -16
-115 -306 -94 -146 -171 -272 -171 -280 0 -9 7 -21 15 -28 13 -10 41 -8 151
14 75 15 140 24 144 19 4 -4 22 -60 40 -123 56 -201 55 -201 246 115 92 153
157 251 168 253 10 2 42 -12 72 -32 29 -20 58 -36 64 -36 6 0 35 16 64 36 30
20 62 34 72 32 11 -2 76 -100 168 -253 191 -316 190 -316 246 -115 18 63 36
119 40 123 4 5 69 -4 144 -19 110 -22 138 -24 151 -14 8 7 15 19 15 27 0 9
-77 135 -171 282 -158 245 -170 267 -152 278 60 40 58 34 44 112 l-13 72 36
54 c20 30 36 59 36 65 0 6 -16 35 -36 65 -37 55 -37 55 -25 112 17 85 16 88
-48 129 -52 34 -60 43 -65 79 -15 96 -20 102 -95 115 -67 12 -67 13 -105 71
-41 64 -44 65 -129 48 -57 -12 -57 -12 -112 25 -30 20 -60 36 -67 35 -7 0 -36
-16 -65 -36z m120 -87 l52 -35 60 13 60 12 35 -50 c35 -49 51 -59 121 -70 35
-6 37 -8 48 -67 11 -55 16 -63 62 -95 53 -39 57 -51 38 -118 -10 -35 -8 -42
25 -92 l36 -54 -36 -54 c-33 -50 -35 -57 -25 -92 19 -67 15 -79 -38 -118 -46
-32 -51 -40 -61 -94 l-12 -60 -60 -12 c-54 -10 -62 -15 -94 -61 -39 -53 -51
-57 -118 -38 -35 10 -42 8 -92 -25 l-54 -36 -54 36 c-50 33 -57 35 -92 25 -67
-19 -79 -15 -118 38 -32 46 -40 51 -94 61 l-59 12 -14 61 c-13 57 -18 64 -64
97 l-51 35 12 60 13 60 -35 53 -34 52 34 53 35 52 -13 60 -12 60 50 35 c49 35
59 51 71 122 5 34 9 38 43 43 71 12 87 22 122 71 l35 50 60 -12 60 -13 50 34
c28 19 51 34 53 34 1 1 26 -14 55 -33z m-509 -1045 c17 -6 49 -13 71 -17 36
-5 45 -13 82 -69 l41 -62 -100 -168 c-68 -114 -103 -163 -108 -154 -4 8 -18
50 -30 94 -31 114 -28 112 -156 87 -59 -12 -109 -20 -111 -19 -3 3 86 145 215
342 l46 70 9 -47 c8 -41 13 -48 41 -57z m1105 -115 c67 -104 120 -191 118
-193 -2 -1 -52 7 -111 19 -128 25 -125 27 -156 -87 -12 -44 -26 -86 -30 -94
-5 -9 -40 40 -108 154 l-100 168 41 62 c40 61 43 63 100 73 72 14 85 24 93 74
6 32 9 37 19 26 7 -7 67 -98 134 -202z"/>
<path d="M881 1684 c-253 -68 -410 -331 -346 -579 63 -239 296 -395 535 -358
277 43 464 320 395 586 -67 259 -333 419 -584 351z m283 -102 c91 -42 149
-100 194 -190 35 -72 37 -81 37 -172 0 -91 -2 -100 -37 -172 -45 -91 -103
-147 -196 -191 -61 -29 -76 -32 -162 -32 -86 0 -101 3 -162 32 -93 44 -151
100 -196 191 -35 72 -37 81 -37 171 0 87 3 102 32 163 40 85 97 147 172 186
78 42 122 52 213 48 61 -3 92 -11 142 -34z"/>
<path d="M1076 1301 l-139 -140 -81 71 -80 71 -38 -41 c-21 -23 -38 -45 -37
-49 0 -4 55 -55 121 -112 l120 -104 181 181 181 182 -39 40 c-21 22 -42 40
-45 40 -3 0 -68 -63 -144 -139z"/>
</g>
</svg>
