<?xml version="1.0" standalone="no"?>
<!DOCTYPE svg PUBLIC "-//W3C//DTD SVG 20010904//EN"
 "http://www.w3.org/TR/2001/REC-SVG-20010904/DTD/svg10.dtd">
<svg version="1.0" xmlns="http://www.w3.org/2000/svg"
 width="752.000000pt" height="752.000000pt" viewBox="0 0 752.000000 752.000000"
 preserveAspectRatio="xMidYMid meet">

<g transform="translate(0.000000,752.000000) scale(0.100000,-0.100000)"
fill="#000000" stroke="none">
<path d="M2910 4722 c-1265 -731 -1437 -833 -1453 -863 -33 -63 -5 -128 72
-168 l33 -18 -47 -27 c-54 -32 -80 -80 -71 -131 7 -34 31 -61 85 -93 l34 -20
-42 -21 c-103 -53 -105 -157 -5 -221 l46 -29 -41 -21 c-46 -23 -81 -71 -81
-111 0 -65 9 -71 855 -560 638 -368 817 -468 845 -468 29 -1 191 89 885 490
468 270 1113 642 1434 827 355 205 590 347 600 362 9 13 16 43 16 66 0 48 -27
84 -84 113 l-33 18 47 27 c54 32 80 80 71 131 -7 34 -31 61 -84 93 l-33 19 45
27 c55 32 80 75 73 123 -7 43 -20 59 -75 94 l-44 28 41 20 c47 24 70 55 77
102 10 63 -20 90 -261 229 -121 69 -486 280 -811 468 -459 265 -599 342 -625
342 -27 0 -350 -183 -1469 -828z m2248 248 c583 -336 768 -448 759 -456 -10
-9 -809 -472 -885 -513 -19 -10 -31 -7 -87 24 -36 20 -65 40 -65 43 0 4 107
68 237 142 129 74 246 143 259 153 38 29 32 69 -16 113 -22 21 -40 43 -40 49
0 6 18 28 40 48 44 39 49 63 23 96 -29 35 -795 473 -818 467 -11 -2 -40 -12
-65 -22 -64 -25 -179 -23 -250 5 -30 11 -60 21 -67 21 -6 0 -141 -75 -299
-167 l-288 -166 -64 35 c-35 19 -64 39 -64 44 0 9 903 534 913 531 4 -1 353
-202 777 -447z m-913 14 c66 -20 195 -21 269 -1 l59 16 321 -186 c177 -102
322 -186 323 -187 1 -1 -5 -22 -13 -46 -17 -48 -12 -100 11 -136 13 -20 5 -26
-228 -160 -132 -76 -243 -139 -246 -138 -13 2 -1010 579 -1011 584 0 5 450
269 460 270 3 0 28 -7 55 -16z m-133 -625 c431 -249 787 -455 791 -459 5 -4
-111 -69 -256 -144 l-265 -136 -776 448 c-426 246 -776 450 -776 453 0 6 480
287 492 288 4 1 359 -202 790 -450z m-1299 -3 c-10 -7 -162 -95 -338 -196
-176 -101 -328 -190 -337 -198 -31 -27 -23 -69 22 -109 22 -20 40 -42 40 -48
0 -6 -18 -28 -40 -48 -45 -40 -50 -65 -17 -101 19 -21 704 -423 778 -456 23
-10 36 -9 85 10 73 28 179 30 244 5 91 -35 68 -44 479 193 l381 221 65 -37
c36 -20 65 -40 65 -43 0 -5 -951 -558 -1092 -636 -4 -2 -135 70 -290 160 -156
90 -505 291 -775 447 -271 157 -489 288 -485 292 4 4 252 148 551 321 l544
314 69 -40 c61 -35 67 -41 51 -51z m3071 -75 l49 -29 -24 -15 c-13 -8 -186
-108 -384 -222 -198 -114 -370 -214 -383 -222 l-23 -14 3 63 3 62 350 203
c193 111 352 203 355 203 3 0 27 -13 54 -29z m-2799 -61 l122 -70 17 -67 c9
-36 27 -85 40 -107 105 -178 371 -288 598 -246 49 9 60 8 88 -8 l31 -19 -318
-183 c-175 -101 -321 -185 -325 -187 -3 -2 -32 4 -64 12 -75 19 -206 19 -272
0 l-52 -16 -322 186 c-178 103 -324 187 -325 189 -1 1 5 22 13 46 16 47 13 87
-10 131 l-13 26 331 191 c182 105 333 192 335 192 2 0 59 -31 126 -70z m453
-261 c86 -50 161 -95 167 -100 24 -23 -140 22 -195 54 -57 33 -159 137 -135
137 3 0 77 -41 163 -91z m2344 54 c38 -21 46 -29 36 -38 -7 -7 -168 -101 -358
-210 -190 -109 -366 -211 -392 -227 l-48 -27 0 62 1 62 352 202 c194 112 354
203 356 203 2 0 25 -12 53 -27z m-892 -540 l-1 -308 -226 -130 c-125 -71 -248
-142 -275 -158 l-48 -27 0 329 0 329 268 136 c147 74 270 135 275 136 4 0 7
-138 7 -307z m891 270 c27 -14 46 -30 42 -34 -5 -5 -187 -111 -406 -238 l-397
-229 0 61 1 62 352 202 c194 112 354 203 356 203 2 0 25 -12 52 -27z m-3479
-555 c527 -305 713 -408 737 -408 39 0 43 2 316 160 510 295 724 419 788 454
l67 38 0 -60 0 -59 -584 -337 -584 -337 -776 448 c-476 275 -772 451 -766 457
13 13 84 54 91 53 3 -1 323 -185 711 -409z m-4 -268 c557 -322 717 -410 744
-410 34 0 73 22 1002 558 87 51 160 92 162 92 2 0 4 -26 4 -58 l0 -58 -584
-337 -583 -338 -776 448 c-466 269 -773 451 -767 457 5 5 26 19 47 32 21 12
39 23 39 23 1 1 321 -183 712 -409z m0 -270 c551 -318 718 -410 744 -410 26 0
163 74 597 325 310 179 565 325 567 325 2 0 4 -26 4 -58 l0 -58 -584 -337
-583 -337 -776 448 c-457 263 -772 451 -767 456 7 7 43 30 87 55 1 1 321 -183
711 -409z"/>
<path d="M4481 4656 c-96 -56 -181 -112 -189 -124 -24 -36 8 -92 51 -92 27 0
365 192 390 221 9 12 17 30 17 40 0 28 -36 59 -67 58 -16 0 -102 -44 -202
-103z"/>
<path d="M2980 3789 c-178 -102 -210 -127 -210 -160 0 -27 35 -59 65 -59 30 0
350 181 383 217 12 13 22 31 22 39 0 21 -45 64 -67 64 -10 0 -97 -46 -193
-101z"/>
</g>
</svg>
